<svg width="100%" height="100%" viewBox="0 0 66 71" fill="none" xmlns="http://www.w3.org/2000/svg"><g clip-path="url(#clip0)"><path d="M19.4248 29.0873C18.7712 28.8882 18.0722 29.2502 17.8634 29.9108L16.2383 35.1508C16.0386 35.8024 16.4017 36.5083 17.0645 36.7074C17.1825 36.7436 17.3096 36.7617 17.4276 36.7617C17.9632 36.7617 18.4534 36.4178 18.6259 35.8838L20.251 30.6439C20.4598 29.9923 20.0876 29.2954 19.4248 29.0873Z" style="fill: currentcolor;"></path><path d="M47.8136 43.8121C47.4958 43.2057 46.7332 42.9795 46.1341 43.2962L40.914 46.0474C40.3057 46.3732 40.0697 47.1244 40.3965 47.7307C40.6235 48.1561 41.0502 48.3914 41.5041 48.3914C41.7038 48.3914 41.8944 48.3461 42.0851 48.2466L47.3052 45.4954C47.9044 45.1696 48.1404 44.4184 47.8136 43.8121ZM37.3825 49.3054C37.0557 48.6991 36.3021 48.4728 35.6939 48.7896L30.4738 51.5408C29.8656 51.8575 29.6295 52.6087 29.9563 53.215C30.1742 53.6404 30.61 53.8757 31.0548 53.8757C31.2546 53.8757 31.4543 53.8304 31.6358 53.7309L36.8559 50.9887C37.4733 50.6629 37.7002 49.9118 37.3825 49.3054ZM26.9423 54.7988C26.6246 54.1834 25.862 53.9571 25.2628 54.2739L20.3151 56.8622C19.6977 57.188 19.4708 57.9301 19.7976 58.5455C20.0155 58.9708 20.4512 59.2061 20.8961 59.2061C21.0958 59.2061 21.2955 59.1609 21.4771 59.0613L26.4248 56.473C27.0331 56.1563 27.2691 55.4051 26.9423 54.7988Z" style="fill: currentcolor;"></path><path fill-rule="evenodd" clip-rule="evenodd" d="M44.2914 5.90086L65.8526 46.6168C66.1794 47.2232 65.9434 47.9743 65.3352 48.3092L24.2009 69.9659L23.7833 70.1831C23.6017 70.2826 23.402 70.3279 23.2023 70.3279C23.1438 70.3279 23.0888 70.3245 23.0356 70.3179C23.0333 70.3178 23.0309 70.3177 23.0284 70.3176C23.0066 70.3162 22.9732 70.3098 22.9341 70.3007C22.9024 70.2939 22.871 70.2858 22.8397 70.2765C22.7571 70.2538 22.6698 70.2269 22.6157 70.2093L22.6162 70.2085L8.03224 65.7214C7.36951 65.5133 7.00638 64.8164 7.2061 64.1648C7.23334 64.0924 7.26057 64.0291 7.29689 63.9657L8.12302 61.3774C8.32275 60.7168 9.03086 60.3548 9.68451 60.5539C10.3109 60.753 10.665 61.3865 10.5288 62.0109L13.8787 60.2552C14.487 59.9385 15.2405 60.1647 15.5582 60.7801C15.876 61.3865 15.649 62.1376 15.0317 62.4634L11.6636 64.2372L20.6966 67.0156L13.3159 53.0785L12.1448 56.8705C11.9723 57.4045 11.473 57.7484 10.9464 57.7484C10.8193 57.7484 10.7013 57.7303 10.5742 57.685C9.91147 57.4769 9.54833 56.78 9.74806 56.1284L11.3731 50.8884C11.4548 50.626 11.6182 50.4179 11.8179 50.264L0.143101 28.2272C-0.174643 27.6209 0.0523174 26.8697 0.669649 26.553L22.4669 15.0776C22.4682 15.0712 22.4695 15.0647 22.4707 15.0581C22.4787 15.0173 22.4876 14.9717 22.5032 14.9328L24.3643 8.94166C24.5731 8.28101 25.2631 7.91901 25.9258 8.11811C26.5885 8.32626 26.9516 9.02311 26.7519 9.67471L25.5717 13.4395L39.5252 6.09091L30.6284 3.34875L32.6075 7.07736C32.9252 7.69276 32.6983 8.44391 32.09 8.76066C31.9085 8.85116 31.7087 8.90546 31.509 8.90546C31.0551 8.90546 30.6193 8.66111 30.4014 8.23576L28.3588 4.42571C28.1954 4.95966 27.7052 5.30356 27.1695 5.30356C27.0515 5.30356 26.9244 5.28546 26.7973 5.24926C26.1437 5.04111 25.7805 4.34426 25.9803 3.69265L26.7065 1.2582C26.7247 1.1858 26.7519 1.1315 26.7792 1.0772C26.7882 1.01385 26.8064 0.941452 26.8245 0.878102C27.0243 0.217452 27.7324 -0.144549 28.386 0.0545517L42.9387 4.54336H42.9569C43.0295 4.55241 43.1112 4.57051 43.1838 4.58861C43.2655 4.61576 43.3382 4.64291 43.4108 4.68816H43.4199C43.6287 4.80581 43.8102 4.97776 43.9192 5.19496L44.2914 5.90086ZM23.7107 67.3957L61.613 47.4404C61.1228 47.1598 60.8776 46.5716 61.0592 46.0105C61.2226 45.4675 61.7219 45.1236 62.2576 45.1326L42.2851 7.44841L2.93925 28.1639L23.7107 67.3957Z" style="fill: currentcolor;"></path><path d="M57.8996 43.7669L52.2619 42.0384C51.5992 41.8302 50.9093 42.2013 50.7005 42.8619C50.5007 43.5135 50.8729 44.2104 51.5266 44.4185L57.1643 46.1471C57.2914 46.1833 57.4094 46.2014 57.5365 46.2014C58.0721 46.2014 58.5714 45.8575 58.7258 45.3235C58.9346 44.6719 58.5624 43.9751 57.8996 43.7669Z" style="fill: currentcolor;"></path><path d="M49.1385 38.282L46.3787 33.0873C46.0609 32.4719 45.2983 32.2456 44.6992 32.5624C44.0818 32.8882 43.8549 33.6303 44.1817 34.2457L46.9325 39.4494C47.1594 39.8748 47.5952 40.1101 48.04 40.1101C48.2397 40.1101 48.4395 40.0648 48.6301 39.9653C49.2293 39.6395 49.4562 38.8883 49.1385 38.282ZM43.6279 27.8745L40.8681 22.6798C40.5503 22.0644 39.7877 21.8381 39.1795 22.1549C38.5712 22.4716 38.3352 23.2228 38.662 23.8382L41.4219 29.0329C41.6397 29.4582 42.0755 29.7026 42.5203 29.7026C42.7201 29.7026 42.9198 29.6573 43.1014 29.5578C43.7187 29.241 43.9457 28.4899 43.6279 27.8745Z" style="fill: currentcolor;"></path><path d="M20.5333 26.6257C20.4153 26.6257 20.2882 26.6076 20.1611 26.5714C19.4984 26.3723 19.1353 25.6755 19.335 25.0148L20.96 19.7658C21.1598 19.1051 21.8588 18.7431 22.5215 18.9422C23.1842 19.1413 23.5474 19.8382 23.3477 20.4988L21.7226 25.7479C21.5592 26.2818 21.069 26.6257 20.5333 26.6257Z" style="fill: currentcolor;"></path><path d="M37.1106 19.549C36.6657 19.549 36.23 19.3047 36.003 18.8884L33.5428 14.2095C33.225 13.6032 33.452 12.852 34.0602 12.5262C34.6685 12.2095 35.422 12.4357 35.7488 13.0421L38.2182 17.7209C38.5359 18.3273 38.3089 19.0784 37.7007 19.4042C37.51 19.5038 37.3103 19.549 37.1106 19.549Z" style="fill: currentcolor;"></path><path d="M14.3146 46.798C14.1966 46.798 14.0695 46.7799 13.9424 46.7437C13.2797 46.5446 12.9165 45.8477 13.1162 45.1871L14.6868 40.1281C14.8865 39.4675 15.5856 39.1055 16.2483 39.3046C16.911 39.5037 17.2742 40.2005 17.0744 40.8612L15.5039 45.9201C15.3405 46.4541 14.8502 46.798 14.3146 46.798Z" style="fill: currentcolor;"></path></g><defs><clipPath id="clip0"><rect width="66" height="70.3279" style="fill: currentcolor;"></rect></clipPath></defs></svg>
